<svg id="visual" viewBox="0 0 900 450" width="900" height="450" xmlns="http://www.w3.org/2000/svg" xmlns:xlink="http://www.w3.org/1999/xlink" version="1.1"><rect x="0" y="0" width="900" height="450" fill="#001220"></rect><path d="M0 51L21.5 59.7C43 68.3 86 85.7 128.8 92.8C171.7 100 214.3 97 257.2 86C300 75 343 56 385.8 55.8C428.7 55.7 471.3 74.3 514.2 74.3C557 74.3 600 55.7 642.8 51.2C685.7 46.7 728.3 56.3 771.2 58.3C814 60.3 857 54.7 878.5 51.8L900 49L900 0L878.5 0C857 0 814 0 771.2 0C728.3 0 685.7 0 642.8 0C600 0 557 0 514.2 0C471.3 0 428.7 0 385.8 0C343 0 300 0 257.2 0C214.3 0 171.7 0 128.8 0C86 0 43 0 21.5 0L0 0Z" fill="#520000"></path><path d="M0 36L21.5 41.8C43 47.7 86 59.3 128.8 61.5C171.7 63.7 214.3 56.3 257.2 50C300 43.7 343 38.3 385.8 45.3C428.7 52.3 471.3 71.7 514.2 73.2C557 74.7 600 58.3 642.8 58.7C685.7 59 728.3 76 771.2 81C814 86 857 79 878.5 75.5L900 72L900 0L878.5 0C857 0 814 0 771.2 0C728.3 0 685.7 0 642.8 0C600 0 557 0 514.2 0C471.3 0 428.7 0 385.8 0C343 0 300 0 257.2 0C214.3 0 171.7 0 128.8 0C86 0 43 0 21.5 0L0 0Z" fill="#953a10"></path><path d="M0 66L21.5 62.7C43 59.3 86 52.7 128.8 47.2C171.7 41.7 214.3 37.3 257.2 35.8C300 34.3 343 35.7 385.8 41.7C428.7 47.7 471.3 58.3 514.2 55.7C557 53 600 37 642.8 36.3C685.7 35.7 728.3 50.3 771.2 54.5C814 58.7 857 52.3 878.5 49.2L900 46L900 0L878.5 0C857 0 814 0 771.2 0C728.3 0 685.7 0 642.8 0C600 0 557 0 514.2 0C471.3 0 428.7 0 385.8 0C343 0 300 0 257.2 0C214.3 0 171.7 0 128.8 0C86 0 43 0 21.5 0L0 0Z" fill="#d1780c"></path><path d="M0 25L21.5 22.3C43 19.7 86 14.3 128.8 11C171.7 7.7 214.3 6.3 257.2 9.2C300 12 343 19 385.8 25.3C428.7 31.7 471.3 37.3 514.2 35C557 32.7 600 22.3 642.8 19.3C685.7 16.3 728.3 20.7 771.2 20C814 19.3 857 13.7 878.5 10.8L900 8L900 0L878.5 0C857 0 814 0 771.2 0C728.3 0 685.7 0 642.8 0C600 0 557 0 514.2 0C471.3 0 428.7 0 385.8 0C343 0 300 0 257.2 0C214.3 0 171.7 0 128.8 0C86 0 43 0 21.5 0L0 0Z" fill="#ffc003"></path></svg>